<?xml version="1.0"?>
<svg xmlns="http://www.w3.org/2000/svg" xmlns:xlink="http://www.w3.org/1999/xlink" xmlns:svgjs="http://svgjs.com/svgjs" version="1.1" width="512" height="512" x="0" y="0" viewBox="0 0 512 512.00073" style="enable-background:new 0 0 512 512" xml:space="preserve" class=""><g><path xmlns="http://www.w3.org/2000/svg" d="m343.371094 189.394531c.84375-14.835937-3.558594-29.253906-12.386719-41.019531l6.757813-6.757812c2.9375-2.9375 2.9375-7.691407 0-10.628907l-10.210938-10.214843c-8.617188-8.613282-21.121094-11.011719-31.90625-7.207032.667969-.742187 1.371094-1.476562 2.136719-2.191406 3.035156-2.832031 3.203125-7.585938.371093-10.621094-2.828124-3.035156-7.582031-3.203125-10.621093-.375-1.484375 1.386719-2.828125 2.804688-4.058594 4.246094-24.519531-58.902344-68.195313-50.644531-87.933594 7.714844-13.730469-.066406-24.953125 10.433594-32.664062 21.722656l-27.59375-63.003906c-1.664063-3.800782-6.09375-5.535156-9.898438-3.867188-3.800781 1.664063-5.53125 6.09375-3.867187 9.898438l32.238281 73.613281c-6.050781 13.800781-8.757813 27.035156-9.074219 36.183594-27.539062.433593-29.558594 26.046875-49.410156 26.046875-11.03125 0-15.046875-6.3125-22.851562-14.003906l-8.191407-18.707032c11.652344-10.28125 25.152344-15.59375 41.128907-16.175781 4.148437-.152344 7.386718-3.636719 7.234374-7.785156-.152343-4.148438-3.621093-7.378907-7.785156-7.234375-17.703125.648437-33.410156 6.324218-46.851562 16.875l-9.792969-22.363282c11.65625-10.277343 25.15625-15.589843 41.128906-16.175781 4.148438-.148437 7.390625-3.636719 7.238281-7.78125-.152343-4.148437-3.628906-7.394531-7.785156-7.238281-17.703125.648438-33.414062 6.328125-46.851562 16.875l-9.792969-22.359375c11.652344-10.277344 25.152344-15.589844 41.128906-16.175781 4.148438-.152344 7.386719-3.636719 7.234375-7.785156-.152344-4.144532-3.632812-7.382813-7.785156-7.234376-17.703125.648438-33.410156 6.324219-46.851562 16.875l-7.59375-17.339843c-8.328126-19.023438.324218-41.160157 19.347656-49.492188 11.699218-3.753906 25.476562-16.054687 45.882812-8.078125 19.867188 7.765625 22.304688 25.925782 26.601563 33.308594 1.664062 3.800781 6.097656 5.535156 9.898437 3.871094 3.800782-1.664063 5.53125-6.097656 3.867188-9.898438l-5.863282-13.386718c-11.660156-26.632813-42.648437-38.75-69.285156-27.085938-9.28125 5.457031-34.261718 9.011719-45.023437 36.535156-5.113281 13.089844-4.828125 27.382813.808593 40.253906l46.957032 107.21875c-7.792969.863282-13.761719 7.417969-13.761719 15.347657v124.601562c0 4.148438 3.363281 7.511719 7.515625 7.511719 4.148438 0 7.511719-3.363281 7.511719-7.511719.34375-131.476562-.644531-125.511719.644531-124.976562 12.332031 5.175781 17.660156 24.546875 41.9375 24.546875 30.78125 0 31.015625-31.472656 55.546875-25.421875 1.679687.945312 3.925781-.542969 14.171875 10.097656 6.574219 6.828125 14.75 15.324219 30.472656 15.324219 15.71875 0 23.898438-8.496094 30.46875-15.324219 6.132813-6.367187 10.554688-10.726563 19.625-10.726563 20.476563 0 22.558594 28.050782 52.964844 25.953126 21.125-1.460938 27.058594-18.625 38.203125-24.027344 2.359375-1.140625 1.523437-21.203125 1.523437 270.839844 0 12.292968-10 22.292968-22.292968 22.292968h-240.96875c-12.292969 0-22.292969-10-22.292969-22.292968v-118.230469c0-4.152344-3.367187-7.515625-7.515625-7.515625s-7.515625 3.363281-7.515625 7.515625v118.230469c0 20.578124 16.742187 37.320312 37.324219 37.320312h240.96875c20.578125 0 37.320312-16.742188 37.320312-37.320312v-270.886719c0-6.285157-3.800781-12.046875-9.882812-14.398438zm-37.507813-62.566406c8.972657 0 12.617188 6.800781 15.9375 9.476563-5.121093 5.082031-4.761719 4.832031-5.835937 5.75-6.226563 5.121093-14.570313 4.648437-20.039063.152343-1.035156-.855469-1.253906-1.183593-6.007812-5.902343l.070312-.070313c3.304688-2.65625 6.886719-9.40625 15.875-9.40625zm-64.925781-47.554687c12.707031 0 26.847656 21.902343 32.882812 43.351562-.101562.359375-.210937.71875-.304687 1.074219-15.382813 1.820312-29.339844 9.238281-39.421875 20.5625-6.148438-11.90625-14.363281-22.390625-24.0625-27.875 6.726562-19.164063 19.214844-37.113281 30.90625-37.113281zm-42.140625 48.574218c17.542969 4.898438 32.910156 42.554688 32.410156 61.882813-16.707031 7.339843-19.121093 23.203125-35.765625 23.203125-14.054687 0-17.402344-10.816406-28.941406-19.253906-3.796875-2.777344-6.5-3.769532-6.808594-3.945313-.554687-21.097656 19.050782-67.484375 39.105469-61.886719zm96.839844 85.085938c-20.257813 0-21.414063-25.59375-49.402344-26.042969-.320313-8.765625-2.550781-18.367187-5.386719-26.703125 7.054688-10.972656 18.175782-18.527344 30.941406-21.011719.191407 7.519531 1.742188 12.800781 1.898438 13.3125 1.863281 6.109375 9.996094 7.179688 13.449219 1.921875 9.328125 7.210938 21.796875 8.296875 32.089843 3.320313 7.222657 9.808593 10.273438 21.808593 8.902344 33.621093-13.445312 7.660157-17.402344 21.582032-32.492187 21.582032zm0 0" fill="#ffffff" data-original="#000000" style=""/></g></svg>
